<?xml version="1.0" encoding="UTF-8" standalone="no"?>
<!-- Created with Inkscape (http://www.inkscape.org/) -->

<svg
   xmlns:dc="http://purl.org/dc/elements/1.1/"
   xmlns:cc="http://creativecommons.org/ns#"
   xmlns:rdf="http://www.w3.org/1999/02/22-rdf-syntax-ns#"
   xmlns:svg="http://www.w3.org/2000/svg"
   xmlns="http://www.w3.org/2000/svg"
   xmlns:sodipodi="http://sodipodi.sourceforge.net/DTD/sodipodi-0.dtd"
   xmlns:inkscape="http://www.inkscape.org/namespaces/inkscape"
   width="935.1394"
   height="654.13757"
   id="svg2"
   version="1.1"
   inkscape:version="0.48.2 r9819"
   sodipodi:docname="pybones_logo.svg">
  <defs
     id="defs4">
    <filter
       inkscape:collect="always"
       id="filter3847"
       x="-0.10007292"
       width="1.2001458"
       y="-0.76825212"
       height="2.5365042">
      <feGaussianBlur
         inkscape:collect="always"
         stdDeviation="14.409841"
         id="feGaussianBlur3849" />
    </filter>
  </defs>
  <sodipodi:namedview
     id="base"
     pagecolor="#ffffff"
     bordercolor="#666666"
     borderopacity="1.0"
     inkscape:pageopacity="0.0"
     inkscape:pageshadow="2"
     inkscape:zoom="0.36098295"
     inkscape:cx="360.42128"
     inkscape:cy="-64.21459"
     inkscape:document-units="px"
     inkscape:current-layer="layer1"
     showgrid="false"
     inkscape:window-width="1366"
     inkscape:window-height="710"
     inkscape:window-x="-2"
     inkscape:window-y="-3"
     inkscape:window-maximized="1"
     fit-margin-top="10"
     fit-margin-left="10"
     fit-margin-right="10"
     fit-margin-bottom="10" />
  <metadata
     id="metadata7">
    <rdf:RDF>
      <cc:Work
         rdf:about="">
        <dc:format>image/svg+xml</dc:format>
        <dc:type
           rdf:resource="http://purl.org/dc/dcmitype/StillImage" />
        <dc:title />
      </cc:Work>
    </rdf:RDF>
  </metadata>
  <g
     inkscape:label="Capa 1"
     inkscape:groupmode="layer"
     id="layer1"
     transform="translate(218.81335,-90.33118)">
    <path
       id="path3893"
       d="m 163.64603,622.929 c -3.44512,-0.62985 -6.82349,-0.23456 -9.85917,0.92956 2.26218,6.49805 5.03507,12.8998 5.30537,19.80835 3.22684,9.60778 -7.72438,31.00392 -3.39849,31.27371 34.69464,4.1273 51.0016,3.22481 51.0016,3.22481 0.22834,-6.39874 -4.63743,-26.8492 -15.62605,-41.55018 -1.21321,-3.29725 -2.74013,-6.42343 -4.42938,-9.48244 L 163.64603,622.929 z"
       style="fill:#37c837;fill-opacity:1;stroke:#000000;stroke-width:2;stroke-linecap:round;stroke-linejoin:round;stroke-miterlimit:4;stroke-opacity:1;stroke-dasharray:none;stroke-dashoffset:0"
       inkscape:connector-curvature="0" />
    <path
       sodipodi:nodetypes="ssccsscscs"
       inkscape:connector-curvature="0"
       id="path3895"
       d="m 180.10436,653.66801 c -5.48222,0.14359 -9.69205,8.95953 -9.41036,19.71705 0.0264,1.02129 0.11946,2.03125 0.2223,3.00807 17.78752,1.8082 31.20084,3.40876 48.6599,1.18951 0.099,-1.27144 0.12316,-2.60436 0.088,-3.94905 -0.28172,-10.75754 -4.97105,-19.34047 -10.4533,-19.19691 -2.47841,0.0649 -4.69146,1.91456 -6.35386,4.90248 -1.91417,-3.79724 -4.57199,-6.14723 -7.4545,-6.07176 -3.07891,0.0806 -5.75654,2.89266 -7.46441,7.25179 -1.93355,-4.25831 -4.75708,-6.93174 -7.83372,-6.85118 z"
       style="fill:#aa8800;fill-opacity:1;stroke:#000000;stroke-width:1.5303365;stroke-miterlimit:4;stroke-opacity:1;stroke-dasharray:none" />
    <path
       sodipodi:type="arc"
       style="fill:#000000;fill-opacity:0.77333331000000005;stroke:none;stroke-width:2;stroke-linecap:round;stroke-linejoin:round;stroke-miterlimit:4;stroke-opacity:1;stroke-dasharray:none;stroke-dashoffset:0;filter:url(#filter3847)"
       id="path3073"
       sodipodi:cx="440.8103"
       sodipodi:cy="630.93701"
       sodipodi:rx="172.7921"
       sodipodi:ry="22.507988"
       d="m 613.6024,630.93701 a 172.7921,22.507988 0 1 1 -345.5842,0 172.7921,22.507988 0 1 1 345.5842,0 z"
       transform="matrix(1.4045824,0,0,1,-471.91394,77.865217)" />
    <path
       sodipodi:type="arc"
       style="fill:#241c1c;fill-opacity:1;stroke:#000000;stroke-width:2;stroke-linecap:round;stroke-linejoin:round;stroke-miterlimit:4;stroke-opacity:1;stroke-dasharray:none;stroke-dashoffset:0"
       id="path3917"
       sodipodi:cx="653.51703"
       sodipodi:cy="218.29633"
       sodipodi:rx="38.442177"
       sodipodi:ry="33.78994"
       d="m 691.95921,218.29633 a 38.442177,33.78994 0 1 1 -76.88436,0 38.442177,33.78994 0 1 1 76.88436,0 z"
       transform="translate(-218.81335,90.33118)" />
    <path
       style="fill:#fff5ce;fill-opacity:1;stroke:#000000;stroke-width:3;stroke-linecap:butt;stroke-linejoin:miter;stroke-miterlimit:4;stroke-opacity:1;stroke-dasharray:none"
       d="m 673.21875,191.1875 c -7.91295,-0.0521 -18.59949,4.40827 -19.26769,13.125 -0.34614,3.19232 -3.73877,14.02504 2.19408,16.64198 0.68148,0.30059 0.21833,1.16409 0.21833,1.16409 -7.6794,0.74082 -4.04515,23.30996 -1.08222,30.03768 5.56529,8.95878 15.59427,4.51965 26.25,7.9375 15.24924,2.1204 30.58148,4.85866 45.3125,9.59375 11.29904,5.88531 24.02294,9.35326 36.84375,8.84375 11.84351,0.35755 22.54693,-5.00269 33.78125,-7.71875 14.16266,-1.54535 28.4475,-2.34604 42.65625,-3.59375 8.35596,-1.10415 20.0095,4.26745 25.28125,-5.0625 0.87693,-11.06702 -0.0451,-22.61852 4.3125,-33.09375 l -10.78125,-11.75 C 808.93591,207.98067 754.1768,225.11074 701.78125,192 c -9.00547,0.64843 -17.97165,-0.4397 -26.96875,-0.75 -0.52215,-0.0435 -1.06622,-0.059 -1.59375,-0.0625 z"
       transform="translate(-218.81335,90.33118)"
       id="path3901"
       inkscape:connector-curvature="0"
       sodipodi:nodetypes="scsscccccccccccs" />
    <path
       style="fill:#37c837;fill-opacity:1;stroke:#000000;stroke-width:2;stroke-linecap:round;stroke-linejoin:round;stroke-miterlimit:4;stroke-opacity:1;stroke-dasharray:none;stroke-dashoffset:0"
       d="m 500.375,166.09375 c -49.31752,0.98284 -136.71875,85.51763 -136.71875,123.59375 0,12.69204 7.44197,24.15735 20.0625,34.21875 0,0 71.52548,95.95706 44.375,130.9375 l -68.375,88.09375 C 334.08449,528.50161 294.88245,519.25 250.9375,519.25 c -5.01666,-0.84399 -29.96875,0 -29.96875,0 -87.48701,-3.64093 -304.071461,65.78994 -367.46875,29.1875 -28.39527,-17.06056 -28.42443,-30.36416 -22.46875,-52.1875 9.86686,-26.29391 36.33728,-42.89481 62.10015,-50.46235 35.073707,-10.30249 90.449139,-15.85325 92.1811,-50.91265 1.840655,-37.25965 -56.68479,-62.54142 -92.15625,-63.5 104.5080904,21.42093 94.312012,85.62829 -9.32161,100.36441 -45.68406,6.49602 -86.08936,33.99088 -90.45964,76.04184 -10.56235,56.0115 51.2886,103.83675 106.03125,100.5625 71.167029,6.54769 143.152756,-3.99446 213.90625,6.125 l 10.78125,3.28125 c -18.57465,15.45549 -39.90625,58.9375 -39.90625,58.9375 0,0 -15.849418,28.09224 -4.46875,38.15625 l 82.625,2.625 c -7.87964,-23.02019 -17.13374,-62.66228 -13.40625,-87.40625 0.28193,-1.03195 0.61372,-2.07834 1,-3.125 21.07936,10.03044 49.2688,16.92613 80.90625,19 0,0 0.72963,24.28747 -13.09375,59.9375 -1.13071,6.99814 -6.6741,20.24665 -2.59096,25.78408 l 75.24721,1.80967 c 0,0 -6.47999,-24.88556 -8.9375,-41.625 -3.27574,-14.94647 -3.15927,-31.69935 -3.03125,-46.46875 8.4371,-0.76576 16.59074,-1.88911 24.40625,-3.3125 3.52523,8.95058 10.42643,16.63219 12.5625,26.1875 4.90211,8.87081 -2.02263,31.88759 2.28125,31.375 34.87122,-2.17955 50.7645,-6.01906 50.7645,-6.01906 -0.92615,-6.33548 -9.40494,-25.55837 -22.85825,-38.04344 -4.38314,-7.42293 -10.45187,-13.59002 -16.21875,-19.9375 37.0499,-11.45143 61.40625,-30.76143 61.40625,-52.6875 0,-7.45719 -2.82702,-14.63125 -8,-21.28125 6.80161,-5.20008 31.76952,-33.98885 75.44772,-87.29136 25.24713,-30.81023 4.6621,-92.65539 -13.26022,-121.39614 39.71925,12.07125 88.06793,18.65625 130.9375,18.65625 60.84791,0 70.6077,-7.55307 100.28125,-33.875 -3.09977,1.96533 -6.29075,3.88827 -9.59375,5.71875 C 618.28492,370.24096 447.68718,351.37434 433.625,326 c -5.51127,-9.94476 -4.55653,-22.50182 1.5,-35.6875 12.85486,22.59578 176.6935,53.04602 225.0625,43.46875 9.51548,-1.88411 18.54097,-4.44058 26.96875,-7.5 8.93191,-11.20938 26.21607,-32.50939 13.875,-36.59375 C 629.71853,266.08609 537.2059,231.42155 532.34375,197.78125 529.0119,174.7288 516.81417,165.76614 500.375,166.09375 z"
       id="path3121"
       inkscape:connector-curvature="0"
       sodipodi:nodetypes="sscscccccsacsccccccccccccccccccsccscscscsscscsss" />
    <path
       style="fill:#37c837;fill-opacity:1;stroke:#000000;stroke-width:2.81435776;stroke-linecap:round;stroke-linejoin:round;stroke-miterlimit:4;stroke-opacity:1;stroke-dashoffset:0"
       d="m 665.35152,303.44349 c 0,-21.46023 7.53393,-38.85716 16.82749,-38.85716 9.29356,0 16.82748,17.39693 16.82748,38.85716"
       id="path3916"
       inkscape:connector-curvature="0"
       sodipodi:nodetypes="csc" />
    <path
       d="m 188.89853,159.89241 c 0,38.21559 -23.74368,69.19545 -53.03301,69.19545 -29.28932,0 -53.033004,-30.97986 -53.033004,-69.19545 0,-38.21559 23.743684,-69.19545 53.033004,-69.19545 29.28933,0 53.03301,30.97986 53.03301,69.19545 z"
       sodipodi:ry="69.19545"
       sodipodi:rx="53.033009"
       sodipodi:cy="159.89241"
       sodipodi:cx="135.86552"
       id="path3117"
       style="fill:#ffffff;fill-opacity:1;stroke:#000000;stroke-width:2;stroke-linecap:round;stroke-linejoin:round;stroke-miterlimit:4;stroke-opacity:1;stroke-dasharray:none;stroke-dashoffset:0"
       sodipodi:type="arc"
       transform="matrix(0.79648661,0,0,0.73779623,413.85414,76.503975)" />
    <path
       sodipodi:type="arc"
       style="fill:#ffffff;fill-opacity:1;stroke:#000000;stroke-width:2;stroke-linecap:round;stroke-linejoin:round;stroke-miterlimit:4;stroke-opacity:1;stroke-dasharray:none;stroke-dashoffset:0"
       id="path2985"
       sodipodi:cx="135.86552"
       sodipodi:cy="159.89241"
       sodipodi:rx="53.033009"
       sodipodi:ry="69.19545"
       d="m 188.89853,159.89241 c 0,38.21559 -23.74368,69.19545 -53.03301,69.19545 -29.28932,0 -53.033004,-30.97986 -53.033004,-69.19545 0,-38.21559 23.743684,-69.19545 53.033004,-69.19545 29.28933,0 53.03301,30.97986 53.03301,69.19545 z"
       transform="matrix(0.79648661,0,0,0.79648661,340.638,70.376364)" />
    <path
       sodipodi:end="5.5249666"
       sodipodi:start="0"
       transform="matrix(0.49123346,0,0,0.49123346,455.32752,119.9886)"
       sodipodi:type="arc"
       style="fill:#000000;fill-opacity:1;stroke:#000000;stroke-width:2;stroke-linecap:round;stroke-linejoin:round;stroke-miterlimit:4;stroke-opacity:1;stroke-dasharray:none;stroke-dashoffset:0"
       id="path3119"
       sodipodi:cx="135.86552"
       sodipodi:cy="159.89241"
       sodipodi:rx="41.56797"
       sodipodi:ry="69.19545"
       d="m 177.43349,159.89241 c 0,38.21559 -18.61061,69.19545 -41.56797,69.19545 -22.95735,0 -41.567966,-30.97986 -41.567966,-69.19545 0,-38.21559 18.610616,-69.19545 41.567966,-69.19545 11.41655,0 22.33058,7.816288 30.18093,21.61464 l -30.18093,47.58081 z" />
    <path
       d="m 188.89853,159.89241 c 0,38.21559 -23.74368,69.19545 -53.03301,69.19545 -29.28932,0 -53.033004,-30.97986 -53.033004,-69.19545 0,-38.21559 23.743684,-69.19545 53.033004,-69.19545 29.28933,0 53.03301,30.97986 53.03301,69.19545 z"
       sodipodi:ry="69.19545"
       sodipodi:rx="53.033009"
       sodipodi:cy="159.89241"
       sodipodi:cx="135.86552"
       id="path2987"
       style="fill:#ffffff;fill-opacity:1;stroke:#000000;stroke-width:2;stroke-linecap:round;stroke-linejoin:round;stroke-miterlimit:4;stroke-opacity:1;stroke-dasharray:none;stroke-dashoffset:0"
       sodipodi:type="arc"
       transform="matrix(0.79648661,0,0,0.79648661,340.638,70.376364)" />
    <path
       sodipodi:type="arc"
       style="fill:#ffffff;fill-opacity:1;stroke:#000000;stroke-width:2;stroke-linecap:round;stroke-linejoin:round;stroke-miterlimit:4;stroke-opacity:1;stroke-dasharray:none;stroke-dashoffset:0"
       id="path2989"
       sodipodi:cx="135.86552"
       sodipodi:cy="159.89241"
       sodipodi:rx="53.033009"
       sodipodi:ry="69.19545"
       d="m 188.89853,159.89241 c 0,38.21559 -23.74368,69.19545 -53.03301,69.19545 -29.28932,0 -53.033004,-30.97986 -53.033004,-69.19545 0,-38.21559 23.743684,-69.19545 53.033004,-69.19545 29.28933,0 53.03301,30.97986 53.03301,69.19545 z"
       transform="matrix(0.79648661,0,0,0.79648661,340.638,70.376364)" />
    <path
       d="m 177.43349,159.89241 c 0,38.21559 -18.61061,69.19545 -41.56797,69.19545 -22.95735,0 -41.567966,-30.97986 -41.567966,-69.19545 0,-38.21559 18.610616,-69.19545 41.567966,-69.19545 11.41655,0 22.33058,7.816288 30.18093,21.61464 l -30.18093,47.58081 z"
       sodipodi:ry="69.19545"
       sodipodi:rx="41.56797"
       sodipodi:cy="159.89241"
       sodipodi:cx="135.86552"
       id="path2991"
       style="fill:#000000;fill-opacity:1;stroke:#000000;stroke-width:2;stroke-linecap:round;stroke-linejoin:round;stroke-miterlimit:4;stroke-opacity:1;stroke-dasharray:none;stroke-dashoffset:0"
       sodipodi:type="arc"
       transform="matrix(0.49123346,0,0,0.49123346,382.11138,119.18402)"
       sodipodi:start="0"
       sodipodi:end="5.5249666" />
    <path
       sodipodi:nodetypes="sssss"
       inkscape:connector-curvature="0"
       id="path3914"
       d="m 691.96316,302.0231 c 0,12.94301 -4.54384,1.13022 -10.14895,1.13022 -5.60511,0 -10.14894,11.81279 -10.14894,-1.13022 0,-12.94303 4.54383,-23.43543 10.14894,-23.43543 5.60511,0 10.14895,10.4924 10.14895,23.43543 z"
       style="fill:#000000;fill-opacity:1;stroke:#000000;stroke-width:1.69738758;stroke-linecap:round;stroke-linejoin:round;stroke-miterlimit:4;stroke-opacity:1;stroke-dashoffset:0" />
    <path
       style="font-size:medium;font-style:normal;font-variant:normal;font-weight:normal;font-stretch:normal;text-indent:0;text-align:start;text-decoration:none;line-height:normal;letter-spacing:normal;word-spacing:normal;text-transform:none;direction:ltr;block-progression:tb;writing-mode:lr-tb;text-anchor:start;baseline-shift:baseline;color:#000000;fill:#000000;fill-opacity:1;stroke:none;stroke-width:2;marker:none;visibility:visible;display:inline;overflow:visible;enable-background:accumulate;font-family:Sans;-inkscape-font-specification:Sans"
       d="m 434.9375,272.625 c -4.44681,-0.21236 -8.83776,0.91614 -12.5625,4.28125 -0.0217,0.0199 -0.0426,0.0408 -0.0625,0.0625 -4.13532,4.56598 -4.76622,9.48056 -4.40625,14.375 0.35997,4.89444 1.59995,9.86041 1.3125,14.96875 1.32583,-0.0631 0.79656,-13.73551 0.6875,-15.0938 -0.33983,-4.62069 0.13674,-8.74441 3.8125,-12.84375 0.0114,-0.0103 0.0198,-0.021 0.0313,-0.0313 0.0106,-0.0118 0.0206,-0.0194 0.0313,-0.0313 4.40259,-3.93243 9.70766,-4.31845 15.1875,-3.09375 5.50839,1.23107 11.07399,4.14328 15.59375,6.75 0.45057,0.33211 1.17634,0.18171 1.45783,-0.30209 0.28148,-0.48381 0.0536,-1.18909 -0.45783,-1.41666 -4.57238,-2.63707 -10.30418,-5.68513 -16.1875,-7 -1.47083,-0.32872 -2.95523,-0.55421 -4.4375,-0.625 z"
       id="path3918"
       inkscape:connector-curvature="0"
       sodipodi:nodetypes="cccscccccscscscc" />
    <path
       style="color:#000000;fill:#000000;stroke:#000000;stroke-width:1.43728017999999991;stroke-linecap:round;stroke-linejoin:round;stroke-miterlimit:4;stroke-opacity:1;stroke-dashoffset:0;marker:none;visibility:visible;display:inline;overflow:visible;enable-background:accumulate;fill-opacity:1"
       d="m 474.96223,101.04982 -2.76227,20.70582 -5.8165,-15.56305 c -24.40183,1.19483 -38.92463,11.68064 -57.08697,29.53162 l -1.7966,16.66347 c 21.49675,-21.90784 42.45639,-19.88201 63.50982,-21.71641 l 0,0.0673 0.24703,-0.0449 -0.0898,0.24703 7.3436,0.85339 4.1771,-28.49857 -5.81649,13.96857 z"
       id="rect4010"
       inkscape:connector-curvature="0"
       sodipodi:nodetypes="ccccccccccccc" />
    <path
       sodipodi:nodetypes="ccccccccccc"
       inkscape:connector-curvature="0"
       id="path3060"
       d="m 498.2253,105.04982 2.76227,20.70582 5.8165,-15.56305 c 24.40183,1.19483 45.08697,19.53162 45.08697,19.53162 l 1.7966,16.66347 c -23.99675,-12.90784 -30.45639,-9.88201 -51.50982,-11.71641 l 0,0.0673 -0.24703,-0.0449 0.0898,0.24703 -7.3436,0.85339 c 0.1901,-10.43471 2.31983,-20.30959 3.54831,-30.74427 z"
       style="color:#000000;fill:#000000;stroke:#000000;stroke-width:1.43728017999999991;stroke-linecap:round;stroke-linejoin:round;stroke-miterlimit:4;stroke-opacity:1;stroke-dashoffset:0;marker:none;visibility:visible;display:inline;overflow:visible;enable-background:accumulate;fill-opacity:1;fill-rule:nonzero;stroke-dasharray:none" />
    <path
       style="fill:#aa8800;fill-opacity:1;stroke:#000000;stroke-opacity:1;stroke-width:2;stroke-miterlimit:4;stroke-dasharray:none"
       d="m 335.1875,595.875 c -7.16721,0 -12.96875,11.37363 -12.96875,25.4375 0,1.33516 0.0866,2.65781 0.1875,3.9375 23.09527,-0.28667 40.56088,2.12225 63.53125,3.21875 0.17286,-1.6577 0.25,-3.39827 0.25,-5.15625 0,-14.06387 -5.83279,-25.4375 -13,-25.4375 -3.24016,0 -6.1947,2.34079 -8.46875,6.1875 -2.37087,-5.02642 -5.7628,-8.1875 -9.53125,-8.1875 -4.02521,0 -7.61962,3.58219 -10,9.21875 -2.38041,-5.62941 -5.97775,-9.21875 -10,-9.21875 z"
       transform="translate(-218.81335,90.33118)"
       id="path3870"
       inkscape:connector-curvature="0"
       sodipodi:nodetypes="ssccsscscs" />
    <path
       sodipodi:nodetypes="ssccsscscs"
       inkscape:connector-curvature="0"
       id="path3884"
       d="m 248.59566,702.8563 c -7.16721,0 -12.96875,11.37363 -12.96875,25.4375 0,1.33516 0.0866,2.65781 0.1875,3.9375 23.09527,-0.28667 40.56088,2.12225 63.53125,3.21875 0.17286,-1.6577 0.25,-3.39827 0.25,-5.15625 0,-14.06387 -5.83279,-25.4375 -13,-25.4375 -3.24016,0 -6.1947,2.34079 -8.46875,6.1875 -2.37087,-5.02642 -5.7628,-8.1875 -9.53125,-8.1875 -4.02521,0 -7.61962,3.58219 -10,9.21875 -2.38041,-5.62941 -5.97775,-9.21875 -10,-9.21875 z"
       style="fill:#aa8800;fill-opacity:1;stroke:#000000;stroke-width:2;stroke-miterlimit:4;stroke-opacity:1;stroke-dasharray:none" />
    <path
       style="fill:#aa8800;fill-opacity:1;stroke:#000000;stroke-width:2;stroke-miterlimit:4;stroke-opacity:1;stroke-dasharray:none"
       d="m 335.209,668.16255 c -7.06096,1.22948 -10.82544,13.42973 -8.41289,27.28512 0.22904,1.31537 0.54125,2.60356 0.86017,3.84697 23.3428,-1.04899 40.99041,-1.53353 63.14166,-7.72728 -0.11407,-1.66278 -0.33665,-3.39079 -0.63822,-5.12271 -2.41256,-13.85539 -10.10995,-24.05986 -17.17092,-22.83037 -3.19213,0.55582 -5.70132,3.36874 -7.28179,7.54853 -3.19797,-4.54521 -7.08188,-7.07757 -10.79447,-6.43112 -3.96554,0.6905 -6.89218,4.83618 -8.27036,10.79753 -3.31081,-5.13763 -7.47055,-8.05666 -11.43318,-7.36667 z"
       id="path3886"
       inkscape:connector-curvature="0"
       sodipodi:nodetypes="ssccsscscs" />
    <path
       sodipodi:nodetypes="csc"
       inkscape:connector-curvature="0"
       id="path3899"
       d="m 616.23864,303.44349 c 0,-21.46023 7.53392,-38.85716 16.82748,-38.85716 9.29356,0 16.82749,17.39693 16.82749,38.85716"
       style="fill:#37c837;stroke:#000000;stroke-width:2.81435776000000004;stroke-linecap:round;stroke-linejoin:round;stroke-miterlimit:4;stroke-opacity:1;stroke-dashoffset:0;color:#000000;fill-opacity:1;fill-rule:nonzero;stroke-dasharray:none;marker:none;visibility:visible;display:inline;overflow:visible;enable-background:accumulate" />
    <path
       style="fill:#000000;fill-opacity:1;stroke:#000000;stroke-width:1.69738758;stroke-linecap:round;stroke-linejoin:round;stroke-miterlimit:4;stroke-opacity:1;stroke-dashoffset:0"
       d="m 642.85028,302.0231 c 0,12.94301 -4.54384,1.13022 -10.14895,1.13022 -5.60511,0 -10.14895,11.81279 -10.14895,-1.13022 0,-12.94303 4.54384,-23.43543 10.14895,-23.43543 5.60511,0 10.14895,10.4924 10.14895,23.43543 z"
       id="path3897"
       inkscape:connector-curvature="0"
       sodipodi:nodetypes="sssss" />
  </g>
</svg>
