<?xml version="1.0" encoding="UTF-8" standalone="no"?>
<!-- Created with Inkscape (http://www.inkscape.org/) -->

<svg
   xmlns:dc="http://purl.org/dc/elements/1.1/"
   xmlns:cc="http://creativecommons.org/ns#"
   xmlns:rdf="http://www.w3.org/1999/02/22-rdf-syntax-ns#"
   xmlns:svg="http://www.w3.org/2000/svg"
   xmlns="http://www.w3.org/2000/svg"
   xmlns:sodipodi="http://sodipodi.sourceforge.net/DTD/sodipodi-0.dtd"
   xmlns:inkscape="http://www.inkscape.org/namespaces/inkscape"
   width="935.1394"
   height="654.13757"
   id="svg2"
   version="1.1"
   inkscape:version="0.48.2 r9819"
   sodipodi:docname="pybones_logo.svg">
  <defs
     id="defs4" />
  <sodipodi:namedview
     id="base"
     pagecolor="#ffffff"
     bordercolor="#666666"
     borderopacity="1.0"
     inkscape:pageopacity="0.0"
     inkscape:pageshadow="2"
     inkscape:zoom="0.51050699"
     inkscape:cx="629.78369"
     inkscape:cy="220.85178"
     inkscape:document-units="px"
     inkscape:current-layer="layer1"
     showgrid="false"
     inkscape:window-width="1366"
     inkscape:window-height="710"
     inkscape:window-x="-2"
     inkscape:window-y="-3"
     inkscape:window-maximized="1"
     fit-margin-top="10"
     fit-margin-left="10"
     fit-margin-right="10"
     fit-margin-bottom="10" />
  <metadata
     id="metadata7">
    <rdf:RDF>
      <cc:Work
         rdf:about="">
        <dc:format>image/svg+xml</dc:format>
        <dc:type
           rdf:resource="http://purl.org/dc/dcmitype/StillImage" />
        <dc:title></dc:title>
      </cc:Work>
    </rdf:RDF>
  </metadata>
  <g
     inkscape:label="Capa 1"
     inkscape:groupmode="layer"
     id="layer1"
     transform="translate(218.81335,-90.33118)">
    <path
       style="fill:#ffffff;fill-opacity:1;stroke:#000000;stroke-width:2;stroke-linecap:round;stroke-linejoin:round;stroke-miterlimit:4;stroke-opacity:1;stroke-dasharray:none;stroke-dashoffset:0"
       d="m 500.375,166.09375 c -49.31752,0.98284 -136.71875,85.51763 -136.71875,123.59375 0,12.69204 7.44197,24.15735 20.0625,34.21875 0,0 71.52548,95.95706 44.375,130.9375 l -68.375,88.09375 C 334.08449,528.50161 294.88245,519.25 250.9375,519.25 c -5.01666,-0.84399 -29.96875,0 -29.96875,0 -87.48701,-3.64093 -304.071461,65.78994 -367.46875,29.1875 -28.39527,-17.06056 -28.42443,-30.36416 -22.46875,-52.1875 9.86686,-26.29391 36.33728,-42.89481 62.10015,-50.46235 35.073707,-10.30249 90.449139,-15.85325 92.1811,-50.91265 1.840655,-37.25965 -56.68479,-62.54142 -92.15625,-63.5 104.5080904,21.42093 94.312012,85.62829 -9.32161,100.36441 -45.68406,6.49602 -86.08936,33.99088 -90.45964,76.04184 -10.56235,56.0115 51.2886,103.83675 106.03125,100.5625 71.167029,6.54769 143.152756,-3.99446 213.90625,6.125 l 10.78125,3.28125 c -18.57465,15.45549 -39.90625,58.9375 -39.90625,58.9375 0,0 -15.849418,28.09224 -4.46875,38.15625 l 82.625,2.625 c -7.87964,-23.02019 -17.13374,-62.66228 -13.40625,-87.40625 0.28193,-1.03195 0.61372,-2.07834 1,-3.125 21.07936,10.03044 49.2688,16.92613 80.90625,19 0,0 0.72963,24.28747 -13.09375,59.9375 -1.13071,6.99814 -6.6741,20.24665 -2.59096,25.78408 l 75.24721,1.80967 c 0,0 -6.47999,-24.88556 -8.9375,-41.625 -3.27574,-14.94647 -3.15927,-31.69935 -3.03125,-46.46875 8.4371,-0.76576 16.59074,-1.88911 24.40625,-3.3125 3.52523,8.95058 10.42643,16.63219 12.5625,26.1875 4.90211,8.87081 -2.02263,31.88759 2.28125,31.375 34.87122,-2.17955 50.7645,-6.01906 50.7645,-6.01906 -0.92615,-6.33548 -9.40494,-25.55837 -22.85825,-38.04344 -4.38314,-7.42293 -10.45187,-13.59002 -16.21875,-19.9375 37.0499,-11.45143 61.40625,-30.76143 61.40625,-52.6875 0,-7.45719 -2.82702,-14.63125 -8,-21.28125 6.80161,-5.20008 31.76952,-33.98885 75.44772,-87.29136 25.24713,-30.81023 4.6621,-92.65539 -13.26022,-121.39614 39.71925,12.07125 88.06793,18.65625 130.9375,18.65625 60.84791,0 70.6077,-7.55307 100.28125,-33.875 -3.09977,1.96533 -6.29075,3.88827 -9.59375,5.71875 C 618.28492,370.24096 447.68718,351.37434 433.625,326 c -5.51127,-9.94476 -4.55653,-22.50182 1.5,-35.6875 12.85486,22.59578 176.6935,53.04602 225.0625,43.46875 9.51548,-1.88411 18.54097,-4.44058 26.96875,-7.5 8.93191,-11.20938 26.21607,-32.50939 13.875,-36.59375 C 629.71853,266.08609 537.2059,231.42155 532.34375,197.78125 529.0119,174.7288 516.81417,165.76614 500.375,166.09375 z"
       id="path3121"
       inkscape:connector-curvature="0"
       sodipodi:nodetypes="sscscccccsacsccccccccccccccccccsccscscscsscscsss" />
    <path
       d="m 188.89853,159.89241 c 0,38.21559 -23.74368,69.19545 -53.03301,69.19545 -29.28932,0 -53.033004,-30.97986 -53.033004,-69.19545 0,-38.21559 23.743684,-69.19545 53.033004,-69.19545 29.28933,0 53.03301,30.97986 53.03301,69.19545 z"
       sodipodi:ry="69.19545"
       sodipodi:rx="53.033009"
       sodipodi:cy="159.89241"
       sodipodi:cx="135.86552"
       id="path3117"
       style="fill:#ffffff;fill-opacity:1;stroke:#000000;stroke-width:2;stroke-linecap:round;stroke-linejoin:round;stroke-miterlimit:4;stroke-opacity:1;stroke-dasharray:none;stroke-dashoffset:0"
       sodipodi:type="arc"
       transform="matrix(0.79648661,0,0,0.73779623,413.85414,76.503975)" />
    <path
       sodipodi:type="arc"
       style="fill:#ffffff;fill-opacity:1;stroke:#000000;stroke-width:2;stroke-linecap:round;stroke-linejoin:round;stroke-miterlimit:4;stroke-opacity:1;stroke-dasharray:none;stroke-dashoffset:0"
       id="path2985"
       sodipodi:cx="135.86552"
       sodipodi:cy="159.89241"
       sodipodi:rx="53.033009"
       sodipodi:ry="69.19545"
       d="m 188.89853,159.89241 c 0,38.21559 -23.74368,69.19545 -53.03301,69.19545 -29.28932,0 -53.033004,-30.97986 -53.033004,-69.19545 0,-38.21559 23.743684,-69.19545 53.033004,-69.19545 29.28933,0 53.03301,30.97986 53.03301,69.19545 z"
       transform="matrix(0.79648661,0,0,0.79648661,340.638,70.376364)" />
    <path
       sodipodi:end="5.5249666"
       sodipodi:start="0"
       transform="matrix(0.49123346,0,0,0.49123346,455.32752,119.9886)"
       sodipodi:type="arc"
       style="fill:#000000;fill-opacity:1;stroke:#000000;stroke-width:2;stroke-linecap:round;stroke-linejoin:round;stroke-miterlimit:4;stroke-opacity:1;stroke-dasharray:none;stroke-dashoffset:0"
       id="path3119"
       sodipodi:cx="135.86552"
       sodipodi:cy="159.89241"
       sodipodi:rx="41.56797"
       sodipodi:ry="69.19545"
       d="m 177.43349,159.89241 c 0,38.21559 -18.61061,69.19545 -41.56797,69.19545 -22.95735,0 -41.567966,-30.97986 -41.567966,-69.19545 0,-38.21559 18.610616,-69.19545 41.567966,-69.19545 11.41655,0 22.33058,7.816288 30.18093,21.61464 l -30.18093,47.58081 z" />
    <path
       d="m 188.89853,159.89241 c 0,38.21559 -23.74368,69.19545 -53.03301,69.19545 -29.28932,0 -53.033004,-30.97986 -53.033004,-69.19545 0,-38.21559 23.743684,-69.19545 53.033004,-69.19545 29.28933,0 53.03301,30.97986 53.03301,69.19545 z"
       sodipodi:ry="69.19545"
       sodipodi:rx="53.033009"
       sodipodi:cy="159.89241"
       sodipodi:cx="135.86552"
       id="path2987"
       style="fill:#ffffff;fill-opacity:1;stroke:#000000;stroke-width:2;stroke-linecap:round;stroke-linejoin:round;stroke-miterlimit:4;stroke-opacity:1;stroke-dasharray:none;stroke-dashoffset:0"
       sodipodi:type="arc"
       transform="matrix(0.79648661,0,0,0.79648661,340.638,70.376364)" />
    <path
       sodipodi:type="arc"
       style="fill:#ffffff;fill-opacity:1;stroke:#000000;stroke-width:2;stroke-linecap:round;stroke-linejoin:round;stroke-miterlimit:4;stroke-opacity:1;stroke-dasharray:none;stroke-dashoffset:0"
       id="path2989"
       sodipodi:cx="135.86552"
       sodipodi:cy="159.89241"
       sodipodi:rx="53.033009"
       sodipodi:ry="69.19545"
       d="m 188.89853,159.89241 c 0,38.21559 -23.74368,69.19545 -53.03301,69.19545 -29.28932,0 -53.033004,-30.97986 -53.033004,-69.19545 0,-38.21559 23.743684,-69.19545 53.033004,-69.19545 29.28933,0 53.03301,30.97986 53.03301,69.19545 z"
       transform="matrix(0.79648661,0,0,0.79648661,340.638,70.376364)" />
    <path
       d="m 177.43349,159.89241 c 0,38.21559 -18.61061,69.19545 -41.56797,69.19545 -22.95735,0 -41.567966,-30.97986 -41.567966,-69.19545 0,-38.21559 18.610616,-69.19545 41.567966,-69.19545 11.41655,0 22.33058,7.816288 30.18093,21.61464 l -30.18093,47.58081 z"
       sodipodi:ry="69.19545"
       sodipodi:rx="41.56797"
       sodipodi:cy="159.89241"
       sodipodi:cx="135.86552"
       id="path2991"
       style="fill:#000000;fill-opacity:1;stroke:#000000;stroke-width:2;stroke-linecap:round;stroke-linejoin:round;stroke-miterlimit:4;stroke-opacity:1;stroke-dasharray:none;stroke-dashoffset:0"
       sodipodi:type="arc"
       transform="matrix(0.49123346,0,0,0.49123346,382.11138,119.18402)"
       sodipodi:start="0"
       sodipodi:end="5.5249666" />
    <path
       sodipodi:nodetypes="sssss"
       inkscape:connector-curvature="0"
       id="path3914"
       d="m 684.82393,300.32874 c 0,7.60794 -3.14562,0.66435 -7.02594,0.66435 -3.88032,0 -7.02594,6.94359 -7.02594,-0.66435 0,-7.60795 3.14562,-13.77541 7.02594,-13.77541 3.88032,0 7.02594,6.16746 7.02594,13.77541 z"
       style="fill:#000000;fill-opacity:1;stroke:#000000;stroke-width:1.08277595;stroke-linecap:round;stroke-linejoin:round;stroke-miterlimit:4;stroke-opacity:1;stroke-dashoffset:0" />
    <path
       style="fill:none;stroke:#000000;stroke-width:1.79529941;stroke-linecap:round;stroke-linejoin:round;stroke-miterlimit:4;stroke-opacity:1;stroke-dashoffset:0"
       d="m 666.40115,301.16365 c 0,-12.61438 5.21561,-22.84035 11.64938,-22.84035 6.43377,0 11.64938,10.22597 11.64938,22.84035"
       id="path3916"
       inkscape:connector-curvature="0"
       sodipodi:nodetypes="csc" />
    <path
       style="font-size:medium;font-style:normal;font-variant:normal;font-weight:normal;font-stretch:normal;text-indent:0;text-align:start;text-decoration:none;line-height:normal;letter-spacing:normal;word-spacing:normal;text-transform:none;direction:ltr;block-progression:tb;writing-mode:lr-tb;text-anchor:start;baseline-shift:baseline;color:#000000;fill:#000000;fill-opacity:1;stroke:none;stroke-width:2;marker:none;visibility:visible;display:inline;overflow:visible;enable-background:accumulate;font-family:Sans;-inkscape-font-specification:Sans"
       d="m 434.9375,272.625 c -4.44681,-0.21236 -8.83776,0.91614 -12.5625,4.28125 -0.0217,0.0199 -0.0426,0.0408 -0.0625,0.0625 -4.13532,4.56598 -4.76622,9.48056 -4.40625,14.375 0.35997,4.89444 1.59995,9.86041 1.3125,14.96875 1.32583,-0.0631 0.79656,-13.73551 0.6875,-15.0938 -0.33983,-4.62069 0.13674,-8.74441 3.8125,-12.84375 0.0114,-0.0103 0.0198,-0.021 0.0313,-0.0313 0.0106,-0.0118 0.0206,-0.0194 0.0313,-0.0313 4.40259,-3.93243 9.70766,-4.31845 15.1875,-3.09375 5.50839,1.23107 11.07399,4.14328 15.59375,6.75 0.45057,0.33211 1.17634,0.18171 1.45783,-0.30209 0.28148,-0.48381 0.0536,-1.18909 -0.45783,-1.41666 -4.57238,-2.63707 -10.30418,-5.68513 -16.1875,-7 -1.47083,-0.32872 -2.95523,-0.55421 -4.4375,-0.625 z"
       id="path3918"
       inkscape:connector-curvature="0"
       sodipodi:nodetypes="cccscccccscscscc" />
    <path
       style="color:#000000;fill:none;stroke:#000000;stroke-width:1.43728018;stroke-linecap:round;stroke-linejoin:round;stroke-miterlimit:4;stroke-opacity:1;stroke-dashoffset:0;marker:none;visibility:visible;display:inline;overflow:visible;enable-background:accumulate"
       d="m 474.96223,101.04982 -2.76227,20.70582 -5.8165,-15.56305 c -24.40183,1.19483 -38.92463,11.68064 -57.08697,29.53162 l -1.7966,16.66347 c 21.49675,-21.90784 42.45639,-19.88201 63.50982,-21.71641 l 0,0.0673 0.24703,-0.0449 -0.0898,0.24703 7.3436,0.85339 4.1771,-28.49857 -5.81649,13.96857 z"
       id="rect4010"
       inkscape:connector-curvature="0"
       sodipodi:nodetypes="ccccccccccccc" />
    <path
       sodipodi:nodetypes="ccccccccccc"
       inkscape:connector-curvature="0"
       id="path3060"
       d="m 498.2253,105.04982 2.76227,20.70582 5.8165,-15.56305 c 24.40183,1.19483 45.08697,19.53162 45.08697,19.53162 l 1.7966,16.66347 c -23.99675,-12.90784 -30.45639,-9.88201 -51.50982,-11.71641 l 0,0.0673 -0.24703,-0.0449 0.0898,0.24703 -7.3436,0.85339 c 0.1901,-10.43471 2.31983,-20.30959 3.54831,-30.74427 z"
       style="color:#000000;fill:none;stroke:#000000;stroke-width:1.43728018;stroke-linecap:round;stroke-linejoin:round;stroke-miterlimit:4;stroke-opacity:1;stroke-dashoffset:0;marker:none;visibility:visible;display:inline;overflow:visible;enable-background:accumulate" />
  </g>
</svg>
